<?xml version="1.0" standalone="no"?>
<!DOCTYPE svg PUBLIC "-//W3C//DTD SVG 20010904//EN"
 "http://www.w3.org/TR/2001/REC-SVG-20010904/DTD/svg10.dtd">
<svg version="1.0" xmlns="http://www.w3.org/2000/svg"
 width="326.000000pt" height="56.000000pt" viewBox="0 0 326.000000 56.000000"
 preserveAspectRatio="xMidYMid meet">

<g transform="translate(0.000000,56.000000) scale(0.100000,-0.100000)"
fill="#000000" stroke="none">
<path d="M954 511 c-12 -5 -31 -22 -43 -37 -21 -27 -22 -35 -19 -211 3 -180 3
-183 28 -207 36 -34 70 -39 114 -17 31 16 38 17 43 5 3 -8 16 -14 29 -14 l24
0 0 140 0 140 -60 0 -60 0 0 -45 c0 -25 5 -45 10 -45 16 0 12 -97 -4 -103 -30
-12 -37 19 -34 164 3 136 4 144 23 144 16 0 21 -8 23 -37 l3 -38 50 0 c44 0
49 2 49 23 0 41 -20 93 -44 116 -27 26 -97 37 -132 22z"/>
<path d="M2784 511 c-12 -5 -31 -22 -43 -37 -20 -25 -21 -38 -21 -198 0 -152
2 -175 20 -203 39 -64 151 -64 190 0 18 28 20 51 20 204 l0 173 -28 31 c-21
24 -38 32 -72 35 -25 2 -55 0 -66 -5z m70 -97 c3 -9 6 -75 6 -149 0 -98 -3
-135 -13 -144 -29 -24 -37 9 -37 154 0 78 3 145 7 148 11 12 31 7 37 -9z"/>
<path d="M89 493 c-3 -10 -3 -118 -1 -241 l4 -222 73 0 c95 0 120 12 141 66
23 59 16 157 -13 185 -20 21 -20 22 -2 40 28 28 27 127 -2 163 -19 25 -25 26
-109 26 -75 0 -88 -2 -91 -17z m129 -102 c3 -41 -7 -60 -30 -61 -5 0 -8 25 -8
56 0 47 3 55 18 52 12 -2 18 -15 20 -47z m2 -157 c21 -55 4 -124 -31 -124 -5
0 -9 34 -9 75 0 61 3 75 15 75 9 0 20 -12 25 -26z"/>
<path d="M350 338 c1 -95 5 -193 9 -217 12 -61 47 -93 102 -93 114 -2 123 18
127 280 l3 202 -50 0 -51 0 -2 -197 c-3 -168 -5 -198 -18 -198 -13 0 -15 30
-18 198 l-2 197 -50 0 -50 0 0 -172z"/>
<path d="M620 270 l0 -240 50 0 50 0 0 111 c0 100 2 110 18 107 15 -3 17 -18
20 -111 l3 -107 44 0 45 0 0 114 c0 90 -3 116 -15 126 -14 12 -14 15 1 31 34
37 30 153 -7 190 -16 16 -33 19 -114 19 l-95 0 0 -240z m145 130 c9 -30 -4
-60 -26 -60 -16 0 -19 7 -19 40 0 33 3 40 19 40 11 0 23 -9 26 -20z"/>
<path d="M1160 313 c0 -168 3 -203 18 -233 31 -64 138 -74 188 -19 17 19 19
41 22 235 l3 214 -45 0 -46 0 0 -189 c0 -144 -3 -191 -13 -200 -31 -25 -37 9
-37 201 l0 188 -45 0 -45 0 0 -197z"/>
<path d="M1430 270 l0 -240 100 0 100 0 0 45 0 45 -50 0 -50 0 0 54 0 55 43 3
42 3 3 48 3 47 -45 0 -46 0 0 45 0 45 45 0 45 0 0 45 0 45 -95 0 -95 0 0 -240z"/>
<path d="M1660 270 l0 -240 50 0 50 0 0 110 c0 91 3 110 15 110 12 0 15 -19
15 -110 l0 -110 50 0 50 0 0 115 c0 102 -2 116 -19 127 -18 11 -18 12 1 27 37
31 36 153 -3 192 -16 16 -33 19 -114 19 l-95 0 0 -240z m138 113 c-2 -27 -8
-39 -20 -41 -15 -3 -18 4 -18 37 0 35 3 41 21 41 17 0 20 -5 17 -37z"/>
<path d="M2460 270 l0 -240 45 0 45 0 0 95 0 95 40 0 c76 0 107 58 98 182 -4
51 -9 65 -32 85 -24 20 -37 23 -112 23 l-84 0 0 -240z m125 95 c0 -39 -4 -50
-17 -53 -15 -3 -18 5 -18 53 0 48 3 56 18 53 13 -3 17 -14 17 -53z"/>
<path d="M3016 468 c-3 -24 -13 -119 -21 -213 -8 -93 -17 -182 -20 -197 -4
-27 -3 -28 45 -28 48 0 50 1 50 28 0 38 13 54 41 50 20 -2 25 -10 27 -40 3
-38 3 -38 49 -38 l46 0 -6 58 c-4 31 -14 139 -23 240 l-17 182 -83 0 -83 0 -5
-42z m106 -218 c3 -59 1 -65 -17 -65 -15 0 -20 6 -18 25 1 14 5 70 9 125 l8
100 7 -60 c4 -33 9 -89 11 -125z"/>
<path d="M2280 438 l0 -53 -97 0 c-76 0 -107 -4 -136 -19 -36 -18 -73 -67 -60
-80 4 -3 91 -6 195 -6 180 0 188 1 188 20 0 10 -18 33 -40 51 -26 21 -40 40
-40 56 0 20 5 23 35 23 32 0 35 2 35 30 0 28 -2 30 -40 30 l-40 0 0 -52z
m-135 -78 c-3 -5 -10 -10 -16 -10 -5 0 -9 5 -9 10 0 6 7 10 16 10 8 0 12 -4 9
-10z m125 -12 c0 -13 -23 -5 -28 10 -2 7 2 10 12 6 9 -3 16 -11 16 -16z m-90
-28 c0 -5 -4 -10 -10 -10 -5 0 -10 5 -10 10 0 6 5 10 10 10 6 0 10 -4 10 -10z
m140 0 c0 -5 -4 -10 -10 -10 -5 0 -10 5 -10 10 0 6 5 10 10 10 6 0 10 -4 10
-10z"/>
<path d="M1982 238 c-17 -17 -15 -35 4 -42 9 -3 98 -6 199 -6 150 0 185 3 195
15 10 12 10 18 0 30 -10 12 -45 15 -199 15 -132 0 -191 -4 -199 -12z"/>
<path d="M1985 160 c-3 -6 5 -10 19 -10 14 0 37 -5 51 -12 19 -9 28 -9 37 0
15 15 51 15 65 1 9 -9 20 -9 42 1 25 10 37 10 60 0 22 -9 34 -9 51 0 12 7 31
10 41 7 12 -3 19 0 19 9 0 17 -51 19 -67 3 -8 -8 -17 -8 -31 0 -26 14 -65 14
-78 1 -6 -6 -20 -6 -41 2 -25 9 -38 9 -59 -1 -19 -8 -30 -9 -38 -1 -13 13 -63
13 -71 0z"/>
<path d="M1980 97 c0 -8 8 -21 18 -30 16 -14 44 -17 183 -17 171 0 189 4 189
42 0 17 -14 18 -195 18 -157 0 -195 -3 -195 -13z"/>
</g>
</svg>
